<?xml version="1.0" encoding="iso-8859-1"?>
<!-- Generator: Adobe Illustrator 19.0.0, SVG Export Plug-In . SVG Version: 6.00 Build 0)  -->
<svg version="1.1" id="Layer_1" xmlns="http://www.w3.org/2000/svg" xmlns:xlink="http://www.w3.org/1999/xlink" x="0px" y="0px"
	 viewBox="0 0 512.002 512.002" style="enable-background:new 0 0 512.002 512.002;" xml:space="preserve">
<path style="fill:#4CAF50;" d="M452.268,298.669H276.601l139.034-139.034c3.337-3.337,3.337-8.73,0-12.066
	c-3.337-3.337-8.73-3.337-12.066,0L264.534,286.603V37.668l70.767,70.767c1.664,1.664,3.849,2.5,6.033,2.5s4.369-0.836,6.033-2.5
	c3.337-3.337,3.337-8.73,0-12.066l-85.333-85.333c-3.337-3.337-8.73-3.337-12.066,0l-85.333,85.333
	c-3.337,3.337-3.337,8.73,0,12.066s8.73,3.337,12.066,0l70.767-70.767v248.934L108.434,147.569c-3.337-3.337-8.73-3.337-12.066,0
	c-3.337,3.337-3.337,8.73,0,12.066l139.034,139.034H59.734c-4.719,0-8.533,3.823-8.533,8.533s3.814,8.533,8.533,8.533h175.667
	L96.368,454.769c-3.337,3.337-3.337,8.73,0,12.066c1.664,1.664,3.849,2.5,6.033,2.5s4.369-0.836,6.033-2.5l139.034-139.034v175.667
	c0,4.71,3.814,8.533,8.533,8.533c4.719,0,8.533-3.823,8.533-8.533V327.802l139.034,139.034c1.664,1.664,3.849,2.5,6.033,2.5
	c2.185,0,4.369-0.836,6.033-2.5c3.337-3.337,3.337-8.73,0-12.066L276.601,315.736h175.667c4.719,0,8.533-3.823,8.533-8.533
	S456.987,298.669,452.268,298.669z"/>
<path d="M452.268,290.135H276.601l139.034-139.034c3.337-3.337,3.337-8.73,0-12.066c-3.337-3.337-8.73-3.337-12.066,0
	L264.534,278.069V29.135l70.767,70.767c1.664,1.664,3.849,2.5,6.033,2.5s4.369-0.836,6.033-2.5c3.337-3.337,3.337-8.73,0-12.066
	L262.034,2.502c-3.337-3.337-8.73-3.337-12.066,0l-85.333,85.333c-3.337,3.337-3.337,8.73,0,12.066s8.73,3.337,12.066,0
	l70.767-70.767v248.934L108.434,139.036c-3.337-3.337-8.73-3.337-12.066,0c-3.337,3.337-3.337,8.73,0,12.066l139.034,139.034H59.734
	c-4.719,0-8.533,3.823-8.533,8.533s3.814,8.533,8.533,8.533h175.667L96.368,446.236c-3.337,3.337-3.337,8.73,0,12.066
	c1.664,1.664,3.849,2.5,6.033,2.5s4.369-0.836,6.033-2.5l139.034-139.034v175.667c0,4.71,3.814,8.533,8.533,8.533
	c4.719,0,8.533-3.823,8.533-8.533V319.268l139.034,139.034c1.664,1.664,3.849,2.5,6.033,2.5c2.185,0,4.369-0.836,6.033-2.5
	c3.337-3.337,3.337-8.73,0-12.066L276.601,307.202h175.667c4.719,0,8.533-3.823,8.533-8.533S456.987,290.135,452.268,290.135z"/>
<g>
</g>
<g>
</g>
<g>
</g>
<g>
</g>
<g>
</g>
<g>
</g>
<g>
</g>
<g>
</g>
<g>
</g>
<g>
</g>
<g>
</g>
<g>
</g>
<g>
</g>
<g>
</g>
<g>
</g>
</svg>
